2.8Hzlow3min_grf.mot
version=1
nRows=25
nColumns 19
inDegrees=yes
endheader
time	1_ground_force_vx	1_ground_force_vy	1_ground_force_vz	1_ground_force_px	1_ground_force_py	1_ground_force_pz	1_ground_torque_x	1_ground_torque_y	1_ground_torque_z	2_ground_force_vx	2_ground_force_vy	2_ground_force_vz	2_ground_force_px	2_ground_force_py	2_ground_force_pz	2_ground_torque_x	2_ground_torque_y	2_ground_torque_z
            0.005000	          -20.144523	          798.469532	          -56.461738	           -0.267130	            0.005919	           -0.335778	           -0.001669	            0.066138	           -0.004677	          -24.651907	          775.517824	           64.487951	           -0.284565	            0.005464	           -0.699913	            0.022222	           -0.699072	           -0.058131
            0.005500	          -19.958978	          793.419966	          -55.979418	           -0.267060	            0.005918	           -0.335671	            0.000770	           -0.030614	            0.002160	          -24.399855	          770.547859	           64.141614	           -0.284613	            0.005463	           -0.699734	            0.020761	           -0.655620	           -0.054575
            0.006000	          -19.590111	          789.271597	          -55.447835	           -0.267050	            0.005918	           -0.335613	            0.000702	           -0.028292	            0.001988	          -24.152397	          766.866317	           63.940660	           -0.284570	            0.005464	           -0.699949	            0.020496	           -0.650759	           -0.054260
            0.006500	          -19.451754	          783.503515	          -55.564623	           -0.266988	            0.005918	           -0.335706	            0.002781	           -0.112026	            0.007945	          -24.231701	          762.816602	           63.410036	           -0.284582	            0.005464	           -0.699856	            0.018777	           -0.591112	           -0.049137
            0.007000	          -19.221054	          779.716574	          -55.260436	           -0.266942	            0.005918	           -0.335721	            0.001507	           -0.061128	            0.004332	          -24.123462	          758.766393	           63.207829	           -0.284377	            0.005466	           -0.700087	            0.015037	           -0.472971	           -0.039400
            0.007500	          -18.989564	          774.126250	          -54.780548	           -0.266810	            0.005918	           -0.335646	            0.002069	           -0.084328	            0.005967	          -24.055610	          752.875991	           62.576717	           -0.284480	            0.005464	           -0.699814	            0.016421	           -0.513926	           -0.042716
            0.008000	          -18.850271	          769.437735	          -54.434139	           -0.266736	            0.005919	           -0.335752	            0.001344	           -0.054855	            0.003881	          -24.086675	          748.457540	           62.185543	           -0.284394	            0.005464	           -0.699704	            0.013946	           -0.433354	           -0.036005
            0.008500	          -18.802414	          764.028065	          -54.044742	           -0.266702	            0.005919	           -0.335784	            0.001889	           -0.076769	            0.005430	          -23.465620	          745.144750	           62.267313	           -0.284238	            0.005466	           -0.700038	            0.016294	           -0.517399	           -0.043236
            0.009000	          -18.663088	          759.159377	          -53.699106	           -0.266669	            0.005919	           -0.335809	            0.004018	           -0.163445	            0.011561	          -23.259111	          739.806502	           61.872754	           -0.284235	            0.005465	           -0.699710	            0.015034	           -0.478200	           -0.039994
            0.009500	          -18.477494	          754.470084	          -53.169388	           -0.266626	            0.005918	           -0.335656	            0.006120	           -0.249881	            0.017610	          -23.013168	          736.494869	           61.250762	           -0.284066	            0.005466	           -0.699875	            0.013250	           -0.424047	           -0.035266
            0.010000	          -18.201467	          749.783094	          -53.144307	           -0.266418	            0.005919	           -0.335832	            0.006150	           -0.253339	            0.017957	          -22.807906	          731.524111	           61.045229	           -0.283950	            0.005466	           -0.699889	            0.014381	           -0.461246	           -0.038491
            0.010500	          -17.879121	          744.374338	          -52.984869	           -0.266412	            0.005919	           -0.335805	            0.005605	           -0.233354	            0.016610	          -22.930714	          726.553296	           60.558267	           -0.284003	            0.005466	           -0.699779	            0.011436	           -0.362358	           -0.030203
            0.011000	          -17.648453	          740.767693	          -52.679910	           -0.266274	            0.005918	           -0.335625	            0.004158	           -0.174509	            0.012410	          -22.586090	          721.950277	           60.682485	           -0.284048	            0.005466	           -0.699759	            0.010641	           -0.340141	           -0.028590
            0.011500	          -17.325212	          734.816795	          -52.201795	           -0.266164	            0.005919	           -0.335789	            0.003889	           -0.164958	            0.011719	          -22.709605	          717.163998	           60.102325	           -0.283981	            0.005466	           -0.699784	            0.008548	           -0.269949	           -0.022623
            0.012000	          -17.415117	          730.668928	          -51.806647	           -0.266059	            0.005919	           -0.335732	            0.006530	           -0.273993	            0.019427	          -22.317731	          712.379123	           59.615801	           -0.283925	            0.005466	           -0.699647	            0.010562	           -0.337129	           -0.028213
            0.012500	          -17.412683	          725.438637	          -51.232932	           -0.266120	            0.005919	           -0.335734	            0.008076	           -0.336474	            0.023763	          -21.887567	          709.987760	           59.325511	           -0.283753	            0.005468	           -0.700015	            0.010730	           -0.348072	           -0.029084
            0.013000	          -16.906562	          719.668856	          -50.937931	           -0.266020	            0.005919	           -0.335787	            0.009082	           -0.386589	            0.027363	          -21.583329	          703.544549	           59.020826	           -0.283874	            0.005466	           -0.699751	            0.011152	           -0.363519	           -0.030496
            0.013500	          -16.767004	          714.799774	          -50.500583	           -0.266055	            0.005919	           -0.335730	            0.010178	           -0.433887	            0.030654	          -21.661866	          699.309796	           58.724185	           -0.283818	            0.005467	           -0.699803	            0.008892	           -0.287045	           -0.024104
            0.014000	          -16.169327	          709.751074	          -50.202710	           -0.265824	            0.005919	           -0.335759	            0.008688	           -0.381343	            0.026973	          -21.271925	          695.076902	           58.380416	           -0.283729	            0.005467	           -0.699718	            0.007865	           -0.256999	           -0.021586
            0.014500	          -16.076150	          704.702670	          -49.995304	           -0.265833	            0.005919	           -0.335819	            0.007656	           -0.335614	            0.023810	          -21.116772	          691.026359	           58.318973	           -0.283523	            0.005468	           -0.699807	            0.005166	           -0.169038	           -0.014266
            0.015000	          -15.799994	          700.556053	          -49.876193	           -0.265852	            0.005918	           -0.335699	            0.008355	           -0.370454	            0.026375	          -21.004586	          685.871518	           58.018967	           -0.283603	            0.005467	           -0.699758	            0.005807	           -0.189622	           -0.016040
            0.015500	          -15.843906	          694.966266	          -49.533194	           -0.265717	            0.005919	           -0.335865	            0.009656	           -0.423538	            0.030187	          -20.752661	          680.902558	           57.391061	           -0.283726	            0.005466	           -0.699607	            0.006478	           -0.212557	           -0.017916
            0.016000	          -15.750046	          689.916682	          -49.050653	           -0.265739	            0.005919	           -0.335906	            0.011340	           -0.496730	            0.035316	          -20.411541	          677.221688	           57.096212	           -0.283564	            0.005468	           -0.699906	            0.005764	           -0.191230	           -0.016123
            0.016500	          -15.794416	          685.589118	          -48.793955	           -0.265544	            0.005918	           -0.335576	            0.013340	           -0.579031	            0.041210	          -20.348201	          672.619161	           56.798197	           -0.283553	            0.005468	           -0.699885	            0.005222	           -0.172632	           -0.014578
            0.017000	          -15.150765	          679.819364	          -48.499288	           -0.265689	            0.005919	           -0.335717	            0.011657	           -0.523066	            0.037316	          -19.679154	          668.939765	           56.456280	           -0.283410	            0.005469	           -0.699934	            0.005848	           -0.198792	           -0.016777
